<?xml version="1.0" encoding="UTF-8" standalone="no"?>
<!-- Created with Inkscape (http://www.inkscape.org/) -->

<svg
   xmlns:dc="http://purl.org/dc/elements/1.1/"
   xmlns:cc="http://creativecommons.org/ns#"
   xmlns:rdf="http://www.w3.org/1999/02/22-rdf-syntax-ns#"
   xmlns:svg="http://www.w3.org/2000/svg"
   xmlns="http://www.w3.org/2000/svg"
   xmlns:sodipodi="http://sodipodi.sourceforge.net/DTD/sodipodi-0.dtd"
   xmlns:inkscape="http://www.inkscape.org/namespaces/inkscape"
   version="1.1"
   id="svg2"
   width="3166.1853"
   height="2751.4163"
   viewBox="0 0 3166.1853 2751.4163"
   sodipodi:docname="wattpad.svg"
   inkscape:version="0.92+devel unknown">
  <metadata
     id="metadata8">
    <rdf:RDF>
      <cc:Work
         rdf:about="">
        <dc:format>image/svg+xml</dc:format>
        <dc:type
           rdf:resource="http://purl.org/dc/dcmitype/StillImage" />
        <dc:title></dc:title>
      </cc:Work>
    </rdf:RDF>
  </metadata>
  <defs
     id="defs6" />
  <sodipodi:namedview
     pagecolor="#ffffff"
     bordercolor="#666666"
     inkscape:document-rotation="0"
     borderopacity="1"
     objecttolerance="10"
     gridtolerance="10"
     guidetolerance="10"
     inkscape:pageopacity="0"
     inkscape:pageshadow="2"
     inkscape:window-width="1920"
     inkscape:window-height="1016"
     id="namedview4"
     showgrid="false"
     inkscape:zoom="0.11313708"
     inkscape:cx="3428.1597"
     inkscape:cy="1613.1677"
     inkscape:window-x="0"
     inkscape:window-y="0"
     inkscape:window-maximized="1"
     inkscape:current-layer="g10"
     fit-margin-top="0"
     fit-margin-left="0"
     fit-margin-right="0"
     fit-margin-bottom="0" />
  <g
     inkscape:groupmode="layer"
     inkscape:label="Image"
     id="g10"
     transform="translate(-15320.477,-83517.822)">
    <path
       style="fill:#000000"
       d="m 1023.1953,581.88086 c -107.37177,-0.0295 -156.1671,1.10573 -174.19335,3.70898 -17.879,2.582 -37.07615,4.82443 -42.66015,4.98243 -5.583,0.157 -9.51433,1.31717 -8.73633,2.57617 0.778,1.259 -7.9277,4.37759 -19.3457,6.93359 -22.264,4.982 -75.59866,25.57192 -106.97266,41.29492 -49.995,25.054 -123.25013,82.38594 -159.82813,125.08594 -12.761,14.897 -24.64143,27.65838 -26.39843,28.35938 -1.758,0.701 -3.19532,2.951 -3.19532,5 0,2.049 -7.38515,14.3822 -16.41015,27.4082 -25.041,36.142 -46.30952,80.12767 -63.22852,130.76367 -29.208,87.41696 -27.92273,51.55066 -26.42773,738.09566 1.185,544.01 2.03286,616.558 7.63086,653.959 3.463,23.137 7.13701,48.9503 8.16601,57.3633 7.776,63.565 43.76522,193.2952 73.69922,265.6602 23.591,57.033 72.63469,151.7733 86.67969,167.4453 4.241,4.733 6.63245,8.6054 5.31445,8.6054 -1.318,0 1.82442,4.5532 6.98242,10.1192 5.158,5.566 9.37696,11.6846 9.37696,13.5976 0,5.017 54.99012,74.1201 77.45312,97.3321 12.233,12.64 18.00738,21.4212 16.10938,24.4922 -1.905,3.083 -1.40385,3.8269 1.41015,2.0879 5.513,-3.407 43.15171,31.9976 39.97071,37.5976 -1.274,2.242 -0.87814,2.7698 0.88086,1.1738 4.239,-3.849 21.41951,12.4736 18.35351,17.4356 -1.312,2.122 -0.77564,2.8635 1.19336,1.6465 3.033,-1.875 49.2468,30.8459 54.9668,38.9179 6.477,9.142 113.83694,75.4273 158.71094,97.9903 55.996,28.156 137.35963,61.7841 175.09963,72.3711 12.169,3.413 26.7968,8.1057 32.5058,10.4257 5.71,2.321 12.9622,4.5738 16.1172,5.0098 3.155,0.435 23.8066,5.3395 45.8926,10.8985 69.031,17.372 139.9393,29.2934 217.9863,36.6464 24.189,2.279 50.0013,4.7408 57.3633,5.4688 7.362,0.729 367.9013,1.1315 801.1973,0.8945 l 787.8125,-0.4316 40.1543,-10.5352 c 42.81,-11.23 86.95,-27.5239 124.289,-45.8789 52.591,-25.851 125.5502,-82.3924 163.5352,-126.7344 12.762,-14.897 24.6414,-27.6603 26.3984,-28.3613 1.758,-0.701 3.1953,-2.952 3.1953,-5 0,-2.049 7.3852,-14.3812 16.4102,-27.4062 25.056,-36.163 46.3179,-80.1477 63.2129,-130.7657 29.321,-87.846 27.459,-20.0285 27.459,-1000.0605 0,-980.03201 1.862,-912.2156 -27.459,-1000.06056 -16.895,-50.619 -38.1569,-94.60167 -63.2129,-130.76367 -9.025,-13.026 -16.4102,-25.3592 -16.4102,-27.4082 0,-2.049 -1.4373,-4.299 -3.1953,-5 -1.757,-0.701 -13.6364,-13.46238 -26.3984,-28.35938 -36.577,-42.7 -109.8341,-100.03194 -159.8281,-125.08594 -36.851,-18.467 -85.8021,-36.44057 -128.7461,-47.26757 l -43.2305,-10.89844 h -284.9121 c -314.481,0 -305.9508,-0.56113 -382.7598,25.17187 l -34.0918,11.41992 -34.0898,-11.41992 c -76.723,-25.704 -68.7135,-25.17187 -378.9375,-25.17187 -310.224,0 -302.2145,-0.53213 -378.9375,25.17187 l -34.0899,11.41992 -33.75,-11.30664 c -76.322,-25.57 -64.0672,-24.67898 -360.1562,-26.20898 -49.8373,-0.25725 -92.1352,-0.39641 -127.9258,-0.40625 z m 1762.1504,137.3125 c 106.343,0.0293 211.9568,1.27716 239.6973,3.72266 68.547,6.044 127.0522,24.38379 179.7422,56.34179 42.343,25.683 78.5412,55.67553 74.6972,61.89453 -1.499,2.426 0.099,2.9653 4.166,1.4043 5.114,-1.962 6.0304,-1.04759 4.0684,4.06641 -1.393,3.629 -1.242,5.80117 0.334,4.82617 4.568,-2.823 13.5549,5.66137 27.793,26.23437 7.2779,10.516 14.1789,19.98221 15.3359,21.03321 3.515,3.195 27.4296,43.38253 28.3515,47.64453 0.474,2.191 4.5516,12.25237 9.0606,22.35937 8.378,18.781 20.6223,57.3073 21.5293,67.7383 0.278,3.192 1.6907,7.7195 3.1367,10.0605 8.881,14.37 10.3281,142.0352 10.3281,911.5352 0,769.499 -1.4471,897.1671 -10.3281,911.5371 -1.446,2.34 -2.8587,6.8666 -3.1367,10.0586 -0.907,10.431 -13.1513,48.9573 -21.5293,67.7383 -4.509,10.107 -8.5865,20.1674 -9.0606,22.3574 -0.9219,4.262 -24.8365,44.4525 -28.3515,47.6465 -1.157,1.052 -8.058,10.5181 -15.3359,21.0351 -14.2381,20.573 -23.225,29.0545 -27.793,26.2325 -1.576,-0.975 -1.727,1.1971 -0.334,4.8261 1.962,5.114 1.0456,6.0294 -4.0684,4.0664 -4.068,-1.561 -5.665,-1.0236 -4.166,1.4024 3.844,6.219 -32.3542,36.2135 -74.6972,61.8965 -52.69,31.959 -111.1952,50.2988 -179.7422,56.3418 -50.623,4.463 -1395.2254,4.3966 -1493.4004,-0.07 v 0 c -65.106,-2.964 -133.0353,-9.1667 -164.4453,-15.0117 -10.517,-1.958 -35.4712,-6.3715 -55.4532,-9.8105 -46.616,-8.023 -87.9545,-17.6789 -87.9765,-20.5469 0,-1.233 -5.6027,-2.5574 -12.4297,-2.9434 -16.242,-0.917 -126.6817,-38.0772 -128.3887,-43.1992 -0.725,-2.173 -2.7604,-3.0587 -4.5254,-1.9687 -1.764,1.09 -11.082,-2.2053 -20.707,-7.3223 -9.624,-5.117 -17.5,-8.6069 -17.5,-7.7539 0,2.621 -47.35444,-21.9747 -54.89844,-28.5137 -3.902,-3.382 -8.20355,-5.9519 -9.56055,-5.7109 -5.828,1.036 -19.23133,-7.6227 -17.11133,-11.0547 1.279,-2.068 -0.0703,-2.9252 -2.98828,-1.9062 -8.463,2.953 -99.08431,-60.4102 -140.44531,-98.2012 -77.513,-70.821 -132.14026,-142.3796 -188.44727,-246.8496 -13.263,-24.607 -25.95917,-54.9002 -24.20117,-57.7442 1.172,-1.896 0.65266,-3.4453 -1.15234,-3.4453 -2.741,0 -11.05542,-18.0408 -14.98242,-32.5078 -0.571,-2.103 -6.98872,-21.0837 -14.26172,-42.1797 -17.052,-49.466 -27.29203,-89.9076 -36.95703,-145.9726 -20.225,-117.318 -19.84058,-104.8331 -21.64258,-702.9161 -1.601,-531.087 -10e-4,-646.0189 9.20898,-660.9199 1.488,-2.407 2.93294,-6.9887 3.21094,-10.1797 0.907,-10.432 13.15225,-48.9592 21.53125,-67.7402 4.508,-10.107 8.58459,-20.16837 9.05859,-22.35937 0.92201,-4.262 24.83757,-44.44953 28.35157,-47.64453 1.158,-1.051 8.05989,-10.51621 15.33789,-21.03321 14.238,-20.573 23.22497,-29.05737 27.79297,-26.23437 1.576,0.975 1.72698,-1.19717 0.33398,-4.82617 -1.962,-5.114 -1.04759,-6.02841 4.06641,-4.06641 4.068,1.561 5.66697,1.0217 4.16797,-1.4043 -6.066,-9.814 67.58751,-62.15614 120.47851,-85.61914 76.097,-33.757 123.16192,-37.80317 413.91988,-35.57617 187.836,1.438 227.6661,2.70153 252.9571,8.01953 16.509,3.471 31.5602,7.26464 33.4472,8.43164 1.888,1.166 6.4497,2.78371 10.1387,3.59571 15.07,3.314 45.9471,16.50829 61.2031,26.15429 l 16.2539,10.27539 16.2539,-10.27539 c 14.124,-8.93 41.9615,-21.09431 60.2325,-26.32031 39.268,-11.233 55.4177,-14.02286 101.3457,-17.50586 33.156,-2.515 137.9925,-3.41428 275.3515,-2.36328 186.814,1.429 226.5452,2.69181 251.8262,8.00781 16.509,3.471 31.5612,7.26464 33.4492,8.43164 1.887,1.166 6.4497,2.78371 10.1387,3.59571 15.07,3.314 45.9461,16.50829 61.2031,26.15429 l 16.2539,10.27539 16.2539,-10.27539 c 14.124,-8.93 41.9615,-21.09431 60.2325,-26.32031 38.847,-11.113 54.3742,-13.93869 93.6972,-17.05469 30.6645,-2.4295 137.7371,-3.61909 244.0801,-3.58984 z M 925.25195,1132.002 l 1.25391,576.5156 c 1.146,526.584 1.82858,579.8181 7.89258,614.6191 12.794,73.434 31.11347,132.2026 57.60547,184.8086 7.387,14.669 12.22209,28.0134 10.74409,29.6524 -1.477,1.64 -0.5352,1.7434 2.0938,0.2304 2.629,-1.514 4.7793,-0.9139 4.7793,1.3321 0,4.145 14.5999,25.7771 33.5449,49.7031 45.5,57.463 133.6615,118.4429 204.5215,141.4629 7.887,2.563 14.3398,6.349 14.3398,8.414 0,2.064 1.501,2.8264 3.334,1.6934 1.833,-1.133 17.752,2.1708 35.375,7.3418 17.623,5.171 35.2386,9.4404 39.1446,9.4844 5,0.06 6.3884,1.9364 4.6914,6.3554 -1.892,4.933 -1.3032,5.3603 2.7578,1.9903 3.844,-3.19 13.9021,-2.7356 39.2871,1.7754 87.654,15.577 98.7871,15.7866 864.9551,16.2656 l 739.0507,0.4629 V 1958.0547 1132.002 h -206.5136 -206.5137 v 688.3769 688.3789 H 2371.082 2164.5684 V 1820.3789 1132.002 H 1958.0547 1751.543 v 688.3769 688.3789 h -66.0703 c -77.237,0 -121.188,-4.7257 -155.877,-16.7617 -59.082,-20.498 -117.7575,-74.2908 -149.3945,-136.9649 -11.55,-22.88 -31.6998,-86.9965 -28.3828,-90.3124 1.06,-1.06 0.1704,-4.0449 -1.9786,-6.6329 -8.949,-10.783 -11.1068,-129.086 -11.2128,-614.582 l -0.1133,-511.5019 h -206.6309 z"
       transform="translate(14945.312,82935.942)"
       id="rect9"
       inkscape:connector-curvature="0" />
  </g>
</svg>
