<?xml version="1.0" encoding="UTF-8" standalone="no"?>
<!-- Created with Inkscape (http://www.inkscape.org/) -->

<svg
   xmlns:dc="http://purl.org/dc/elements/1.1/"
   xmlns:cc="http://creativecommons.org/ns#"
   xmlns:rdf="http://www.w3.org/1999/02/22-rdf-syntax-ns#"
   xmlns:svg="http://www.w3.org/2000/svg"
   xmlns="http://www.w3.org/2000/svg"
   xmlns:sodipodi="http://sodipodi.sourceforge.net/DTD/sodipodi-0.dtd"
   xmlns:inkscape="http://www.inkscape.org/namespaces/inkscape"
   version="1.1"
   id="svg2"
   width="256.81903"
   height="245.70793"
   viewBox="0 0 256.81903 245.70793"
   sodipodi:docname="webtoon.svg"
   inkscape:version="0.92+devel unknown">
  <metadata
     id="metadata8">
    <rdf:RDF>
      <cc:Work
         rdf:about="">
        <dc:format>image/svg+xml</dc:format>
        <dc:type
           rdf:resource="http://purl.org/dc/dcmitype/StillImage" />
        <dc:title></dc:title>
      </cc:Work>
    </rdf:RDF>
  </metadata>
  <defs
     id="defs6" />
  <sodipodi:namedview
     pagecolor="#ffffff"
     bordercolor="#666666"
     inkscape:document-rotation="0"
     borderopacity="1"
     objecttolerance="10"
     gridtolerance="10"
     guidetolerance="10"
     inkscape:pageopacity="0"
     inkscape:pageshadow="2"
     inkscape:window-width="1920"
     inkscape:window-height="1016"
     id="namedview4"
     showgrid="false"
     fit-margin-top="0"
     fit-margin-left="0"
     fit-margin-right="0"
     fit-margin-bottom="0"
     inkscape:zoom="1.38"
     inkscape:cx="131.41431"
     inkscape:cy="123.31995"
     inkscape:window-x="0"
     inkscape:window-y="0"
     inkscape:window-maximized="1"
     inkscape:current-layer="g10" />
  <g
     inkscape:groupmode="layer"
     inkscape:label="Image"
     id="g10"
     transform="translate(-18.585691,-27.612022)">
    <path
       style="fill:#1a1a1a;stroke:none;stroke-width:1px;stroke-linecap:butt;stroke-linejoin:miter;stroke-opacity:1"
       d="m 150.78711,27.613281 c -8.71295,-0.02528 -16.77201,0.329796 -19.28711,1.080078 -2.2,0.656285 -7.825,2.101254 -12.5,3.210938 -5.18627,1.231041 -13.16745,4.327183 -20.472656,7.941406 l -11.972656,5.923828 -4.027344,-3.28125 c -4.049483,-3.298894 -9.832606,-5.47207 -14.589844,-5.482422 -5.12465,-0.01115 -9.59834,6.917211 -12.955078,20.064453 -2.464321,9.651939 -3.026825,10.559833 -7.076172,11.449219 -3.736851,0.82075 -8.497771,4.794191 -10.605469,8.84961 -1.807642,3.478082 -2.018435,13.011731 -0.40625,18.404297 0.692902,2.317673 0.598193,4.745072 -0.326172,8.308592 -0.718247,2.76891 -1.244784,8.15652 -1.169921,11.9707 0.128228,6.53318 0.01966,6.89536 -1.88086,6.27539 -3.430853,-1.11916 -9.607822,-0.32172 -11.552734,1.49024 -2.395968,2.23218 -3.805247,8.61857 -3.263672,14.79492 0.925961,10.56005 5.35969,21.69735 13.283203,33.36524 3.604706,5.30816 3.788215,5.90713 2.533203,8.32617 C 32.688064,183.83108 30,197.16791 30,202.7207 c 0,6.08552 3.39414,12.06453 7.447266,13.11914 1.679304,0.43696 4.740234,0.48675 6.802734,0.11133 2.0625,-0.37541 3.75,-0.39614 3.75,-0.0449 0,0.35119 -1.638642,3.10474 -3.640625,6.11719 -6.078092,9.14593 -10.555024,19.35224 -9.802734,22.34961 1.090807,4.34612 5.355107,3.50847 14.61914,-2.87305 4.391387,-3.025 8.285648,-5.49075 8.654297,-5.47852 0.368648,0.0122 1.734029,0.84117 3.035156,1.8418 2.02723,1.55904 2.391562,2.7748 2.548828,8.49219 0.128642,4.67667 0.677405,7.16568 1.833985,8.32226 2.377886,2.37789 11.73034,2.94713 16.572265,1.00977 3.25554,-1.30261 4.112119,-1.3356 5.283204,-0.20898 0.768496,0.73932 3.963571,2.71762 7.101562,4.39648 3.137991,1.67885 6.512992,3.48778 7.500002,4.01953 7.78192,4.1925 25.26755,7.94891 41.79492,8.98047 12.51139,0.7809 27.10518,0.49654 28.75195,-0.56055 0.68691,-0.44093 2.14805,-0.86564 3.24805,-0.94336 2.84198,-0.20079 10.52134,-1.29238 13.66992,-1.94336 1.61354,-0.33361 4.42383,0.24909 7.10547,1.47071 5.72842,2.6096 9.73922,1.6017 16.17188,-4.06055 l 4.70117,-4.13867 3.53125,1.68555 c 4.979,2.37432 7.65997,1.3314 7.02343,-2.73243 -0.27151,-1.73335 -0.78144,-4.05234 -1.13085,-5.15234 -0.49134,-1.5468 0.20869,-2.5665 3.08789,-4.5 2.04754,-1.375 6.29526,-5.05833 9.4375,-8.18555 3.86902,-3.85052 7.02098,-6.03829 9.76562,-6.77734 2.22907,-0.60023 4.29834,-1.49106 4.59961,-1.97852 0.30127,-0.48747 2.45852,-1.81536 4.79297,-2.95117 4.02183,-1.95678 9.78471,-9.13126 10.52539,-13.10351 1.23479,-6.62216 1.11234,-13.80795 -0.30664,-18.08008 -1.4255,-4.29179 -1.43445,-5.10104 -0.0879,-7.70508 5.314,-10.27615 8.68202,-40.23954 6.16992,-54.88477 -0.65366,-3.81075 -1.53847,-7.49444 -1.9668,-8.1875 -0.42833,-0.69305 -0.94761,-2.24705 -1.15429,-3.45312 -0.83919,-4.8968 -3.71921,-15.38006 -4.99805,-18.19336 -3.47677,-7.64847 -5.41878,-12.85075 -4.9668,-13.302734 0.27193,-0.271931 1.51448,-1.001753 2.76172,-1.621094 5.19871,-2.581519 1.71925,-8.767548 -7.23047,-12.855469 -7.2146,-3.295379 -7.23208,-3.32663 -4.61133,-8.566406 3.00178,-6.001561 3.89021,-12.72273 2.125,-16.089844 C 251.37988,50.08297 241.80955,43.58677 232.5,41.121094 230.3,40.538414 223.775,39.849424 218,39.587891 208.03256,39.136495 200.14647,37.289299 193.89453,33.943359 190.56594,32.161953 182.61491,30.112843 174,28.816406 168.86689,28.043937 159.50006,27.638558 150.78711,27.613281 Z M 134.5,34.21875 c 1.5672,-0.0146 1.45899,0.15387 -0.5,0.78125 -1.375,0.440352 -3.625,0.791499 -5,0.78125 -2.2456,-0.01674 -2.19472,-0.09557 0.5,-0.78125 1.65,-0.419854 3.9,-0.771001 5,-0.78125 z m -15.4668,2.380859 c 0.47564,-0.01849 0.62688,0.08821 0.33985,0.34961 -0.47974,0.436914 -4.92305,2.194608 -9.87305,3.904297 -4.95,1.709689 -11.25,4.22726 -14,5.595703 -5.255183,2.615059 -7.596192,3.246543 -5.949219,1.603515 1.550353,-1.546639 10.786809,-6.24877 12.949219,-6.591796 1.1,-0.174495 4.025,-1.079649 6.5,-2.011719 4.25228,-1.601383 8.6063,-2.794129 10.0332,-2.84961 z m 21.62696,36.65625 c 0.51163,-0.02135 1.17306,0.006 2.02343,0.05859 2.09906,0.129784 3.72904,0.709751 3.62305,1.289063 -0.10881,0.594701 1.36702,1.000672 3.38867,0.933593 C 155.51689,75.343948 156,76.537834 156,91.113281 c 0,23.210509 -6.54091,44.929739 -16.67383,55.363279 -5.32253,5.48044 -7.97865,6.49546 -13.36133,5.10938 -4.70087,-1.21051 -16.3911,-8.82766 -15.26953,-9.94922 C 111.04592,141.2861 110.59309,141 109.6875,141 c -0.95577,0 -3.83209,-3.34652 -6.85547,-7.97656 l -5.208983,-7.97656 -2.892578,6.02539 C 91.43377,137.94106 81.458372,149.15328 77,151 c -2.723526,1.12812 -3.336901,0.98522 -6.748047,-1.56641 -9.209419,-6.88891 -13.351354,-14.24298 -16.384765,-29.09179 -1.793318,-8.77844 -2.008781,-22.451692 -0.498047,-31.589847 0.249806,-1.511029 0.757456,-4.545551 1.128906,-6.744141 0.371449,-2.198588 1.157018,-4.293388 1.744141,-4.65625 0.68797,-0.42519 0.772827,-0.161025 0.240234,0.744141 C 55.994519,78.924916 56.475118,78.78319 57.65625,77.75 58.7566,76.7875 60.605284,76 61.763672,76 c 1.158388,0 3.256081,-0.438084 4.662109,-0.972656 5.032585,-1.913385 5.103243,-1.610932 5.087891,21.738281 -0.0123,18.700365 0.241422,22.397285 1.818359,26.484375 1.007989,2.6125 2.132989,4.74904 2.5,4.74805 1.4552,-0.004 6.160081,-8.9042 8.457031,-15.99805 1.335652,-4.125 3.213473,-11.55 4.171876,-16.5 0.958402,-4.95 2.068105,-9.348225 2.464843,-9.773438 1.178723,-1.263326 8.058653,-1.80532 9.964839,-0.785156 1.08133,0.578711 2.25829,3.196174 3.03711,6.751953 2.94572,13.448931 12.96419,32.957041 19.20704,37.402341 3.42178,2.43653 4.74912,1.77713 7.31445,-3.6289 0.89795,-1.89228 1.95158,-3.39169 2.3418,-3.33399 1.84845,0.27335 2.35957,-0.24499 1.39257,-1.41015 -0.75834,-0.91374 -0.56028,-3.201 0.69336,-8.01954 0.96445,-3.70698 2.00579,-6.48639 2.31446,-6.17773 0.30866,0.30866 0.83717,-0.15787 1.17382,-1.03516 0.38879,-1.01319 0.20957,-1.34656 -0.49023,-0.91406 -0.77807,0.48088 -0.93097,-1.04527 -0.52344,-5.197264 1.40076,-14.271125 1.96382,-22.03553 1.74805,-24.089844 -0.15525,-1.478028 0.0256,-1.969149 1.56055,-2.033203 z M 217,73.537109 c 9.74393,-0.0415 15.82669,1.456589 21.42383,5.28125 10.37328,7.088309 11.57031,23.836681 2.41601,33.804691 -1.9392,2.11156 -1.9356,2.14614 0.60547,5.89062 6.62417,9.76127 0.16081,27.57154 -12.02929,33.15235 -4.48907,2.05517 -6.4733,2.34633 -14.4375,2.10937 -6.33708,-0.18855 -9.38566,-0.67387 -9.72071,-1.54687 -0.26849,-0.69959 -0.13542,-4.74959 0.29688,-9 0.4323,-4.25041 0.67372,-8.56528 0.53515,-9.5879 -0.13857,-1.02261 0.13933,-1.61685 0.61914,-1.32031 0.47982,0.29654 0.69289,-1.0042 0.47266,-2.89062 -0.23934,-2.05014 0.0371,-3.42969 0.6875,-3.42969 0.7738,0 0.76343,-0.71366 -0.0371,-2.4707 -0.86067,-1.88895 -0.8281,-2.83039 0.14258,-4 0.88919,-1.07141 0.92847,-1.5293 0.12891,-1.5293 -0.67605,0 -0.92317,-0.91744 -0.60547,-2.25 0.29504,-1.2375 0.68701,-3.64709 0.87109,-5.35547 0.18408,-1.70838 0.69538,-3.6902 1.13672,-4.4043 0.50865,-0.82301 0.40813,-1.05525 -0.27539,-0.63281 -0.75366,0.46578 -0.90573,-1.67061 -0.50586,-7.095701 0.31466,-4.269053 0.95541,-7.91237 1.42383,-8.095703 C 210.61684,89.982682 211,89.169048 211,88.357422 211,87.545796 210.55,87.160081 210,87.5 c -0.60135,0.371654 -1,-0.936893 -1,-3.28125 0,-3.187982 -0.45564,-4.105635 -2.5,-5.037109 -6.06188,-2.761976 -0.78802,-5.596459 10.5,-5.644532 z m -73.08398,3.585938 c -0.3474,-0.01431 -0.74258,0.04892 -1.10352,0.193359 -0.79773,0.319226 -0.56143,0.557485 0.60352,0.605469 1.05416,0.04342 1.64479,-0.193099 1.3125,-0.525391 -0.16615,-0.166145 -0.46511,-0.259127 -0.8125,-0.273437 z M 141,86 c -0.55,0 -1,0.701135 -1,1.558594 0,0.857459 0.45,1.281325 1,0.941406 0.55,-0.339919 1,-1.041053 1,-1.558594 C 142,86.423865 141.55,86 141,86 Z m 84.36914,1.589844 C 224.0573,87.501206 224,89.161794 224,99.714844 v 12.529296 l 2.25,-1.47461 c 1.2375,-0.81094 3.2625,-2.95704 4.5,-4.76953 4.35986,-6.385587 1.7133,-16.599984 -4.73828,-18.287109 -0.24209,-0.06331 -0.45517,-0.110385 -0.64258,-0.123047 z M 171.5,91.255859 l 14.73438,0.689453 c 8.10344,0.378895 14.99618,0.951275 15.31835,1.273438 0.32216,0.322163 0.15393,1.417536 -0.375,2.433594 -0.52893,1.016059 -1.42138,3.020404 -1.98242,4.453126 -1.13074,2.88756 -4.61964,3.86315 -13.87304,3.88281 l -5.17774,0.0117 -0.69336,5.54492 c -0.38109,3.05015 -0.39138,5.8469 -0.0234,6.21485 0.36795,0.36796 4.13503,0.56004 8.3711,0.42578 10.42521,-0.33043 11.19524,0.30213 8.15625,6.70312 -2.52093,5.30981 -4.6736,6.76189 -10.95508,7.38672 -3.4535,0.34352 -3.50466,0.416 -3.80078,5.47461 -0.38339,6.54933 1.37376,7.71812 10.49023,6.98633 l 6.35938,-0.50977 -0.64844,3.63672 c -1.62201,9.10855 -12.36856,13.64532 -21.90039,9.2461 -8.15258,-3.76267 -11.89569,-10.84911 -13.57812,-25.70508 -1.07158,-9.462 -0.6542,-23.22648 0.86523,-28.51953 0.39203,-1.365673 2.51289,-4.089431 4.71289,-6.054692 z m -30.81445,1.910157 c -0.10034,0.0029 -0.2339,0.05531 -0.40039,0.158203 C 138.99723,94.120207 138.01848,100 139.17383,100 139.62858,100 140,99.137048 140,98.082031 c 0,-1.055016 0.30145,-2.703855 0.66992,-3.664062 0.31728,-0.82682 0.31663,-1.260519 0.0156,-1.251953 z m 83.87304,26.326174 c -0.22681,-0.0266 -0.40526,0.0148 -0.51562,0.13476 C 222.8932,120.87716 221.69425,140 222.76562,140 c 0.48732,0 1.83492,-1.0125 2.99415,-2.25 4.83799,-5.16461 5.57977,-12.50029 1.66211,-16.41797 -1.06313,-1.06312 -2.18284,-1.76016 -2.86329,-1.83984 z m 41.53711,6.52734 c 0.0749,-0.006 0.35364,0.41793 0.89844,1.26758 0.63045,0.98322 0.92676,2.33322 0.65625,3 -0.35498,0.87499 -0.51528,0.88809 -0.57227,0.0449 -0.0434,-0.64252 -0.33776,-1.99252 -0.65429,-3 -0.27353,-0.87061 -0.403,-1.30671 -0.32813,-1.3125 z m 4.61133,14.48047 0.27344,6.5 c 0.29138,6.89791 0.0412,16.30242 -0.44727,16.79688 -0.16093,0.1629 -0.53868,-1.63711 -0.83984,-4 -0.30115,-2.36291 -0.19682,-7.67188 0.23242,-11.79688 z m -3.82422,3.13086 c 0.0981,0.002 0.21504,0.0666 0.34961,0.20117 0.49704,0.49704 0.72398,2.65213 0.50391,4.78711 -0.25905,2.51319 -0.48956,2.99944 -0.65235,1.38086 -0.13829,-1.375 -0.36326,-3.52813 -0.50195,-4.78516 -0.11265,-1.02099 0.007,-1.59012 0.30078,-1.58398 z m -60.26172,2.75781 c -0.36444,0.0123 -0.62109,0.40961 -0.62109,1.05274 0,1.75653 0.5998,2.01399 1.45703,0.62695 0.31644,-0.512 0.11756,-1.21313 -0.44141,-1.55859 -0.13974,-0.0864 -0.27305,-0.12518 -0.39453,-0.1211 z m 35.44141,5.9043 c 1.50209,-0.0506 3.11712,1.69451 3.91211,4.55664 2.30252,8.28969 0.4073,31.02838 -4.44727,53.36523 -2.215,10.19164 -6.27199,23.63387 -6.45507,21.38868 -0.0402,-0.49282 -1.17665,0.29468 -2.52539,1.75 -2.40927,2.59964 -5.90969,3.22503 -10.88282,1.9414 -1.29909,-0.33531 -1.68461,-1.10619 -1.31836,-2.63476 1.53071,-6.38846 1.80721,-9.66016 0.81446,-9.66016 -1.16389,0 -5.70463,-6.26559 -8.97657,-12.38672 -1.95927,-3.6654 -2.10795,-3.75054 -2.60937,-1.5 -4.55625,20.44981 -4.81467,21.27843 -6.10938,19.50781 -1.05598,-1.44414 -1.62028,-1.54098 -3.20898,-0.54882 -1.36492,0.8524 -2.77828,0.9176 -4.8418,0.22265 -3.5633,-1.20004 -3.54959,-0.3808 -0.46679,-29.125 1.53576,-14.31953 1.9772,-22.02375 1.34375,-23.44336 -1.05948,-2.37439 1.18901,-8.1654 2.7871,-7.17773 0.50684,0.31324 0.92188,0.12352 0.92188,-0.42188 0,-0.54539 0.94213,-1.29074 2.09375,-1.65625 1.51661,-0.48135 2.91296,0.11834 5.0625,2.17774 3.52228,3.37456 11.23112,15.19486 16.76953,25.71094 2.68295,5.09426 4.13036,6.98812 4.46094,5.83984 1.34284,-4.66448 3.63278,-22.94636 4.0957,-32.69922 0.54043,-11.38576 1.40195,-13.5 5.50781,-13.5 0.88488,0 2.07455,-0.46517 2.64258,-1.0332 0.44099,-0.44099 0.92899,-0.65697 1.42969,-0.67383 z M 99.580078,155.3125 c 1.074592,-0.0517 1.786052,0.0594 2.208982,0.32617 2.6504,1.67183 2.48179,3.10579 -0.70508,5.94531 -1.672802,1.49048 -3.310278,3.55157 -3.636714,4.58008 -0.666494,2.09994 -5.762369,4.95978 -12.335938,6.92383 l -4.388672,1.3125 0.742188,12.04883 c 0.40877,6.62758 0.896134,14.52578 1.082031,17.55078 0.185897,3.025 0.646064,9.57363 1.023437,14.55273 l 0.6875,9.05274 -3.205078,2.69726 c -3.830554,3.2232 -5.611287,3.39249 -7.068359,0.66993 -0.596946,-1.1154 -1.435458,-1.81054 -1.865234,-1.54493 -1.028821,0.63585 -3.612259,-7.83075 -5.621094,-18.42773 -0.886225,-4.675 -2.033444,-10.65378 -2.550781,-13.28516 -0.517338,-2.63137 -1.228426,-8.52671 -1.580078,-13.10156 l -0.638672,-8.31836 -6.615235,-1.17773 c -3.637607,-0.64812 -8.922844,-2.09585 -11.746093,-3.2168 -4.674074,-1.8558 -5.187377,-2.37659 -5.740235,-5.83398 -0.673766,-4.2135 1.750383,-10.51928 3.75,-9.75196 0.64095,0.24596 4.683086,1.23099 8.982422,2.1875 10.529827,2.34266 27.615179,1.69842 40.490234,-1.52539 4.142195,-1.03717 6.939476,-1.57782 8.730469,-1.66406 z m 16.099612,5.04883 c 1.84769,-0.0506 3.78801,0.30933 5.8164,1.08398 9.49885,3.62764 14.48494,13.68756 15.26953,30.81446 0.5001,10.9165 -0.47542,16.95348 -4.39257,27.18164 -1.96474,5.13018 -5.23556,9.67759 -6.71485,9.33789 -0.64359,-0.1478 -2.17959,0.74209 -3.41406,1.97656 -2.76044,2.76044 -2.892,2.75913 -7.38086,-0.0117 -6.35185,-3.92088 -11.66231,-11.73436 -14.4375,-21.24414 -1.223474,-4.19249 -1.776749,-9.76864 -1.837889,-18.50781 -0.08531,-12.19351 -0.0048,-12.67338 3.195309,-19.1875 3.65626,-7.44265 8.35342,-11.29145 13.89649,-11.44336 z M 165.76367,164 c 13.57346,0 20.59055,11.13458 20.48242,32.5 -0.14121,27.90312 -9.34813,43.5 -25.68164,43.5 -3.58981,0 -4.38488,-0.30359 -3.92578,-1.5 0.3905,-1.01762 -0.0527,-1.5 -1.37695,-1.5 -2.25577,0 -5.62896,-3.29877 -4.51367,-4.41406 0.4137,-0.4137 0.077,-0.60326 -0.74805,-0.41992 -0.825,0.18333 -1.3875,-0.22852 -1.25,-0.91602 0.1375,-0.6875 -0.16346,-1.25 -0.66797,-1.25 -1.63134,0 -4.24932,-8.57831 -4.92578,-16.13672 C 140.78811,187.40256 151.39786,164 165.76367,164 Z M 270,165 c 0.55,0 1,1.125 1,2.5 0,1.375 -0.45,2.5 -1,2.5 -0.55,0 -1,-1.125 -1,-2.5 0,-1.375 0.45,-2.5 1,-2.5 z m -0.56836,6.2832 c 0.4403,-0.044 0.46891,0.95309 0.0703,2.8418 -0.98542,4.66935 -2.19068,5.64198 -1.6914,1.36523 0.22527,-1.9296 0.85821,-3.78629 1.40625,-4.125 0.0797,-0.0492 0.15194,-0.0757 0.21484,-0.082 z m -151.3457,10 c -1.20931,0.0173 -2.31291,0.84888 -3.06641,2.66797 -2.13241,5.14811 -0.9208,19.4429 2.22852,26.29883 1.45272,3.1625 3.06246,5.75 3.57617,5.75 0.5137,0 1.43943,-1.2375 2.05859,-2.75 1.78268,-4.35479 3.0512,-17.33234 2.16016,-22.10742 -1.11846,-5.99383 -4.29655,-9.89731 -6.95703,-9.85938 z m 49.45117,2.90235 c -1.14871,-0.0334 -2.2781,0.90687 -3.875,2.80468 -5.27234,6.26582 -6.2606,26.54307 -1.7793,36.50977 l 2.24805,5 2.88281,-3.20898 c 1.58597,-1.76478 3.62947,-5.58978 4.54102,-8.5 0.91155,-2.91022 1.88967,-10.03004 2.17187,-15.82227 0.50335,-10.3316 0.46166,-10.59236 -2.19531,-13.75 -1.67696,-1.99295 -2.84544,-2.99982 -3.99414,-3.0332 z m 72.38086,19.30664 C 239.38008,203.43334 239,203.6317 239,204.03125 c 0,0.53274 0.675,0.96875 1.5,0.96875 0.825,0 1.5,-0.17643 1.5,-0.39258 0,-0.21616 -0.675,-0.65216 -1.5,-0.96875 -0.20625,-0.0791 -0.40273,-0.12687 -0.58203,-0.14648 z m -3.28516,13.93164 c -0.7656,-0.0255 -1.69485,0.31725 -2.35351,1.04101 -0.42842,0.47077 -0.2168,0.53236 0.4707,0.13672 0.6875,-0.39564 1.25,-0.24261 1.25,0.33985 0,0.58246 0.45,1.05859 1,1.05859 0.55,0 1,-0.63577 1,-1.41211 0,-0.74567 -0.60159,-1.1386 -1.36719,-1.16406 z m -32.6875,2.0039 c -1.98715,0 -2.46855,0.71699 -1.27929,1.90625 0.88187,0.88188 0.91934,0.87124 2.15625,-0.61914 0.80723,-0.97266 0.59415,-1.28711 -0.87696,-1.28711 z M 236.2207,222 c -0.54642,0 -1.19142,1.35 -1.43359,3 -0.24217,1.65 -0.068,3 0.38672,3 0.45475,0 0.82617,-0.63796 0.82617,-1.41797 0,-0.78002 0.27357,-2.13002 0.60742,-3 C 236.94126,222.71204 236.76712,222 236.2207,222 Z m -125.84375,38.27734 c 0.78152,0.0621 1.8929,0.49886 2.82032,1.14844 1.83701,1.2867 1.93281,1.57422 0.52539,1.57422 C 112.77528,263 112,262.55 112,262 c 0,-0.55 -0.7875,-1.03471 -1.75,-1.07812 -1.00188,-0.0452 -1.22627,-0.29234 -0.52539,-0.57618 0.16833,-0.0682 0.39184,-0.0891 0.65234,-0.0684 z m 12.87305,5.73828 c 0.9625,-0.008 1.75,0.43438 1.75,0.98438 0,1.21961 -0.11279,1.21961 -2,0 -1.2819,-0.82843 -1.24555,-0.97129 0.25,-0.98438 z m 14.57227,1.0586 c 2.6047,-0.0459 3.17773,0.30825 3.17773,1.32226 0,1.55712 -3.02591,2.24558 -4.29492,0.97657 -0.34519,-0.34518 -2.72928,-0.58674 -5.29883,-0.53516 -6.84922,0.13748 -4.51613,-1.06966 3.08008,-1.59375 1.37383,-0.0948 2.4677,-0.15463 3.33594,-0.16992 z"
       id="path3468"
       inkscape:connector-curvature="0" />
  </g>
</svg>
